<svg width="1288" height="1071" xmlns="http://www.w3.org/2000/svg" xmlns:xlink="http://www.w3.org/1999/xlink" xml:space="preserve" overflow="hidden"><g transform="translate(-1551 -1304)"><path d="M1775.5 1798.5 2193.5 1588.5 2611.5 1798.5 2193.5 2008.5Z" stroke="#F87171" stroke-width="36.6667" stroke-linecap="round" stroke-linejoin="round" stroke-miterlimit="10" fill="#F87171" fill-rule="evenodd"/><path d="M417.926 0 625 104.034 207.074 314 0 209.966Z" stroke="#F87171" stroke-width="36.6667" stroke-linecap="round" stroke-linejoin="round" stroke-miterlimit="10" fill="#FFFFFF" fill-rule="evenodd" transform="matrix(1 0 0 -1 2195.5 1797.5)"/><path d="M1988.09 1483.5 2195.5 1587.53 1776.91 1797.5 1569.5 1693.47Z" stroke="#F87171" stroke-width="36.6667" stroke-linecap="round" stroke-linejoin="round" stroke-miterlimit="10" fill="#FFFFFF" fill-rule="evenodd"/><path d="M2199.5 1322.5C2348.62 1322.5 2469.5 1443.3 2469.5 1592.31 2469.5 1685.44 2422.28 1767.55 2350.46 1816.03L2334.14 1977.95C2334.14 2052.26 2273.86 2112.5 2199.5 2112.5L2199.5 2112.5C2125.14 2112.5 2064.86 2052.26 2064.86 1977.95L2048.54 1816.03C1976.72 1767.55 1929.5 1685.44 1929.5 1592.31 1929.5 1443.3 2050.38 1322.5 2199.5 1322.5Z" stroke="#F87171" stroke-width="36.6667" stroke-miterlimit="8" fill="#FFC000" fill-rule="evenodd"/><path d="M208.726 0C178.803 0 153.13 18.2367 142.164 44.2273L140.5 49.5996 138.836 44.2273C127.87 18.2367 102.197 0 72.2744 0 32.3778 0 0.0353927 32.4208 0.0353927 72.4141-1.386 103.731 40.3353 147.636 63.7462 187.9 87.157 228.165 114.915 314 140.5 314 166.085 314 193.843 228.165 217.254 187.9 240.665 147.636 282.386 103.731 280.965 72.4141 280.965 32.4208 248.622 0 208.726 0Z" stroke="#FFFFFF" stroke-width="36.6667" stroke-linecap="round" stroke-linejoin="round" stroke-miterlimit="10" fill="#FFC000" fill-rule="evenodd" transform="matrix(-1 0 0 1 2339.5 1592.5)"/><path d="M2054.5 1877.5 2343.5 1877.5 2333.44 1977.71C2333.44 2052.15 2273.25 2112.5 2199 2112.5L2199 2112.5C2124.75 2112.5 2064.56 2052.15 2064.56 1977.71Z" stroke="#FFFFFF" stroke-width="36.6667" stroke-miterlimit="8" fill="#F87171" fill-rule="evenodd"/><path d="M0 418 207.165 0 556 0 348.835 418Z" stroke="#FFFFFF" stroke-width="36.6667" stroke-linecap="round" stroke-linejoin="round" stroke-miterlimit="10" fill="#F87171" fill-rule="evenodd" transform="matrix(6.12323e-17 1 1 -6.12323e-17 2193.5 1800.5)"/><path d="M2193.5 2356.5 1775.5 2149.34 1775.5 1800.5 2193.5 2007.66Z" stroke="#FFFFFF" stroke-width="36.6667" stroke-linecap="round" stroke-linejoin="round" stroke-miterlimit="10" fill="#F87171" fill-rule="evenodd"/><path d="M2602.43 1792.5 2809.5 1896.53 2391.57 2106.5 2184.5 2002.47Z" stroke="#F87171" stroke-width="36.6667" stroke-linecap="round" stroke-linejoin="round" stroke-miterlimit="10" fill="#FFFFFF" fill-rule="evenodd"/><path d="M417.926 0 625 104.034 207.074 314 0 209.966Z" stroke="#F87171" stroke-width="36.6667" stroke-linecap="round" stroke-linejoin="round" stroke-miterlimit="10" fill="#FFFFFF" fill-rule="evenodd" transform="matrix(1 0 0 -1 1573.5 2108.5)"/></g></svg>