<svg width="873" height="869" xmlns="http://www.w3.org/2000/svg" xmlns:xlink="http://www.w3.org/1999/xlink" xml:space="preserve" overflow="hidden"><g transform="translate(-3294 -800)"><path d="M3312.5 1093.5 3730.5 883.5 4148.5 1093.5 3730.5 1303.5Z" stroke="#FFFFFF" stroke-width="36.6667" stroke-linecap="round" stroke-linejoin="round" stroke-miterlimit="10" fill="#FFFFFF" fill-rule="evenodd"/><path d="M3454.5 1095C3454.5 942.293 3578.29 818.5 3731 818.5 3883.71 818.5 4007.5 942.293 4007.5 1095 4007.5 1247.71 3883.71 1371.5 3731 1371.5 3578.29 1371.5 3454.5 1247.71 3454.5 1095Z" stroke="#FFFFFF" stroke-width="36.6667" stroke-miterlimit="8" fill="#FFC000" fill-rule="evenodd"/><path d="M3730.5 1104.17C3682.12 1017.28 3601.5 1069.44 3601.5 1118.06 3601.5 1191.06 3730.5 1281.5 3730.5 1281.5 3730.5 1281.5 3859.5 1190.47 3859.5 1118.06 3859.5 1069.44 3778.88 1017.28 3730.5 1104.17Z" stroke="#FFFFFF" stroke-width="36.6667" stroke-miterlimit="8" fill="#FFFFFF" fill-rule="evenodd"/><path d="M0 418 207.165 0 556 0 348.835 418Z" stroke="#FFFFFF" stroke-width="36.6667" stroke-linecap="round" stroke-linejoin="round" stroke-miterlimit="10" fill="#F87171" fill-rule="evenodd" transform="matrix(6.12323e-17 1 1 -6.12323e-17 3730.5 1094.5)"/><path d="M3730.5 1650.5 3312.5 1443.33 3312.5 1094.5 3730.5 1301.66Z" stroke="#FFFFFF" stroke-width="36.6667" stroke-linecap="round" stroke-linejoin="round" stroke-miterlimit="10" fill="#F87171" fill-rule="evenodd"/></g></svg>