<svg width="1288" height="1071" xmlns="http://www.w3.org/2000/svg" xmlns:xlink="http://www.w3.org/1999/xlink" xml:space="preserve" overflow="hidden"><g transform="translate(-12 102)"><path d="M236.5 393.5 654.5 183.5 1072.5 393.5 654.5 603.5Z" stroke="#F87171" stroke-width="36.6667" stroke-linecap="round" stroke-linejoin="round" stroke-miterlimit="10" fill="#F87171" fill-rule="evenodd"/><path d="M418.595 0 626 104.034 207.406 314 0 209.966Z" stroke="#F87171" stroke-width="36.6667" stroke-linecap="round" stroke-linejoin="round" stroke-miterlimit="10" fill="#FFFFFF" fill-rule="evenodd" transform="matrix(1 0 0 -1 655.5 392.5)"/><path d="M448.426 78.4999 655.5 182.534 237.574 392.5 30.5001 288.466Z" stroke="#F87171" stroke-width="36.6667" stroke-linecap="round" stroke-linejoin="round" stroke-miterlimit="10" fill="#FFFFFF" fill-rule="evenodd"/><path d="M653.5-83.5C802.617-83.5 923.5 37.4495 923.5 186.648 923.5 279.897 876.28 362.112 804.459 410.659L788.142 572.784C788.142 647.185 727.86 707.5 653.499 707.5L653.5 707.5C579.139 707.5 518.857 647.185 518.857 572.783L502.541 410.659C430.72 362.112 383.5 279.897 383.5 186.648 383.5 37.4495 504.383-83.5 653.5-83.5Z" stroke="#FFFFFF" stroke-width="36.6667" stroke-miterlimit="8" fill="#FFC000" fill-rule="evenodd"/><path d="M209.468 0C179.439 0 153.675 18.2368 142.669 44.2273L141 49.5996 139.33 44.2273C128.325 18.2368 102.56 0 72.5315 0 32.493 0 0.0355186 32.4209 0.0355186 72.4142-1.39093 103.731 40.4788 147.636 63.9729 187.901 87.4671 228.165 115.324 314 141 314 166.676 314 194.533 228.165 218.027 187.901 241.521 147.636 283.391 103.731 281.964 72.4142 281.964 32.4209 249.507 0 209.468 0Z" stroke="#FFFFFF" stroke-width="36.6667" stroke-linecap="round" stroke-linejoin="round" stroke-miterlimit="10" fill="#FFC000" fill-rule="evenodd" transform="matrix(-1 0 0 1 794.5 187.5)"/><path d="M508.5 472.5 798.5 472.5 788.401 572.706C788.401 647.151 728.003 707.5 653.499 707.5L653.5 707.5C578.996 707.5 518.598 647.151 518.598 572.706Z" stroke="#FFFFFF" stroke-width="36.6667" stroke-miterlimit="8" fill="#FFC000" fill-rule="evenodd"/><path d="M0 418 207.165 0 556 0 348.835 418Z" stroke="#FFFFFF" stroke-width="36.6667" stroke-linecap="round" stroke-linejoin="round" stroke-miterlimit="10" fill="#F87171" fill-rule="evenodd" transform="matrix(6.12323e-17 1 1 -6.12323e-17 654.5 394.5)"/><path d="M654.5 950.5 236.5 743.335 236.5 394.5 654.5 601.665Z" stroke="#FFFFFF" stroke-width="36.6667" stroke-linecap="round" stroke-linejoin="round" stroke-miterlimit="10" fill="#F87171" fill-rule="evenodd"/><path d="M1063.43 387.5 1270.5 491.534 852.574 701.5 645.5 597.466Z" stroke="#F87171" stroke-width="36.6667" stroke-linecap="round" stroke-linejoin="round" stroke-miterlimit="10" fill="#FFFFFF" fill-rule="evenodd"/><path d="M417.926 0 625 104.034 207.074 314 0 209.966Z" stroke="#F87171" stroke-width="36.6667" stroke-linecap="round" stroke-linejoin="round" stroke-miterlimit="10" fill="#FFFFFF" fill-rule="evenodd" transform="matrix(1 0 0 -1 34.4999 701.5)"/></g></svg>