<svg width="1287" height="1071" xmlns="http://www.w3.org/2000/svg" xmlns:xlink="http://www.w3.org/1999/xlink" xml:space="preserve" overflow="hidden"><g transform="translate(-1732 -1260)"><path d="M1955.5 1755.5 2373.5 1545.5 2791.5 1755.5 2373.5 1965.5Z" stroke="#F87171" stroke-width="36.6667" stroke-linecap="round" stroke-linejoin="round" stroke-miterlimit="10" fill="#F87171" fill-rule="evenodd"/><path d="M417.926 0 625 104.034 207.074 314 0 209.966Z" stroke="#F87171" stroke-width="36.6667" stroke-linecap="round" stroke-linejoin="round" stroke-miterlimit="10" fill="#FFFFFF" fill-rule="evenodd" transform="matrix(1 0 0 -1 2375.5 1754.5)"/><path d="M2168.43 1440.5 2375.5 1544.53 1957.57 1754.5 1750.5 1650.47Z" stroke="#F87171" stroke-width="36.6667" stroke-linecap="round" stroke-linejoin="round" stroke-miterlimit="10" fill="#FFFFFF" fill-rule="evenodd"/><path d="M2372.5 1278.5C2521.62 1278.5 2642.5 1399.45 2642.5 1548.65 2642.5 1641.9 2595.28 1724.11 2523.46 1772.66L2507.14 1934.78C2507.14 2009.19 2446.86 2069.5 2372.5 2069.5L2372.5 2069.5C2298.14 2069.5 2237.86 2009.18 2237.86 1934.78L2221.54 1772.66C2149.72 1724.11 2102.5 1641.9 2102.5 1548.65 2102.5 1399.45 2223.38 1278.5 2372.5 1278.5Z" stroke="#FFC000" stroke-width="36.6667" stroke-miterlimit="8" fill="#FFFFFF" fill-rule="evenodd"/><path d="M209.468 0C179.439 0 153.675 18.2367 142.669 44.2273L141 49.5996 139.33 44.2273C128.325 18.2367 102.56 0 72.5315 0 32.493 0 0.0355186 32.4208 0.0355186 72.4141-1.39093 103.731 40.4788 147.636 63.9729 187.9 87.4671 228.165 115.324 314 141 314 166.676 314 194.533 228.165 218.027 187.9 241.521 147.636 283.391 103.731 281.964 72.4141 281.964 32.4208 249.507 0 209.468 0Z" stroke="#FFC000" stroke-width="36.6667" stroke-linecap="round" stroke-linejoin="round" stroke-miterlimit="10" fill="#FFFFFF" fill-rule="evenodd" transform="matrix(-1 0 0 1 2513.5 1549.5)"/><path d="M2227.5 1834.5 2517.5 1834.5 2507.4 1934.71C2507.4 2009.15 2447 2069.5 2372.5 2069.5L2372.5 2069.5C2298 2069.5 2237.6 2009.15 2237.6 1934.71Z" stroke="#FFC000" stroke-width="36.6667" stroke-miterlimit="8" fill="#FFFFFF" fill-rule="evenodd"/><path d="M0 418 207.165 0 556 0 348.835 418Z" stroke="#FFFFFF" stroke-width="36.6667" stroke-linecap="round" stroke-linejoin="round" stroke-miterlimit="10" fill="#F87171" fill-rule="evenodd" transform="matrix(6.12323e-17 1 1 -6.12323e-17 2373.5 1756.5)"/><path d="M2373.5 2312.5 1955.5 2105.34 1955.5 1756.5 2373.5 1963.66Z" stroke="#FFFFFF" stroke-width="36.6667" stroke-linecap="round" stroke-linejoin="round" stroke-miterlimit="10" fill="#F87171" fill-rule="evenodd"/><path d="M2783.09 1749.5 2990.5 1853.53 2571.91 2063.5 2364.5 1959.47Z" stroke="#F87171" stroke-width="36.6667" stroke-linecap="round" stroke-linejoin="round" stroke-miterlimit="10" fill="#FFFFFF" fill-rule="evenodd"/><path d="M417.926 0 625 104.034 207.074 314 0 209.966Z" stroke="#F87171" stroke-width="36.6667" stroke-linecap="round" stroke-linejoin="round" stroke-miterlimit="10" fill="#FFFFFF" fill-rule="evenodd" transform="matrix(1 0 0 -1 1753.5 2063.5)"/></g></svg>