<svg xmlns="http://www.w3.org/2000/svg" xml:space="preserve" width="873" height="869" overflow="hidden"><g fill-rule="evenodd" stroke="#FFF" stroke-width="36.667"><path fill="#FFF" stroke-linecap="round" stroke-linejoin="round" stroke-miterlimit="10" d="m18.5 293.5 418-210 418 210-418 210Z"/><path fill="#FFC000" stroke-miterlimit="8" d="M160.5 295c0-152.707 123.79-276.5 276.5-276.5S713.5 142.293 713.5 295c0 152.71-123.79 276.5-276.5 276.5S160.5 447.71 160.5 295Z"/><path fill="#FFF" stroke-miterlimit="8" d="M436.5 304.17c-48.38-86.89-129-34.73-129 13.89 0 73 129 163.44 129 163.44s129-91.03 129-163.44c0-48.62-80.62-100.78-129-13.89Z"/><path fill="#F87171" stroke-linecap="round" stroke-linejoin="round" stroke-miterlimit="10" d="m854.5 294.5-418 207.165V850.5l418-207.165Zm-418 556-418-207.17V294.5l418 207.16Z"/></g></svg>