<svg xmlns="http://www.w3.org/2000/svg" xml:space="preserve" width="873" height="870" overflow="hidden"><g fill-rule="evenodd" stroke-width="36.667"><path fill="#FFF" stroke="#F87171" stroke-linecap="round" stroke-linejoin="round" stroke-miterlimit="10" d="m18.5 293.5 418-210 418 210-418 210Z"/><path fill="#FFC000" stroke="#FFC000" stroke-miterlimit="8" d="M160.5 295.5c0-152.98 123.79-277 276.5-277s276.5 124.02 276.5 277-123.79 277-276.5 277-276.5-124.02-276.5-277Z"/><path fill="#FFF" stroke="#FFF" stroke-miterlimit="8" d="M437 304.96c-48.56-86.5-129.5-34.57-129.5 13.83C307.5 391.47 437 481.5 437 481.5s129.5-90.62 129.5-162.71c0-48.4-80.94-100.33-129.5-13.83Z"/><path fill="#F87171" stroke="#F87171" stroke-linecap="round" stroke-linejoin="round" stroke-miterlimit="10" d="m854.5 295.5-418 207.165V851.5l418-207.165Zm-418 556-418-207.16V295.5l418 207.16Z"/></g></svg>