<svg width="1279" height="1062" xmlns="http://www.w3.org/2000/svg" xmlns:xlink="http://www.w3.org/1999/xlink" xml:space="preserve" overflow="hidden"><g transform="translate(-2701 -219)"><path d="M2921 709.5 3339 499 3757 709.5 3339 920Z" stroke="#F87171" stroke-width="27.5" stroke-linecap="round" stroke-linejoin="round" stroke-miterlimit="10" fill="#FFFFFF" fill-rule="evenodd"/><path d="M417.926 0 625 104.034 207.074 314 0 209.966Z" stroke="#F87171" stroke-width="27.5" stroke-linecap="round" stroke-linejoin="round" stroke-miterlimit="10" fill="#FFFFFF" fill-rule="evenodd" transform="matrix(1 0 0 -1 3341 709)"/><path d="M3133.93 395 3341 499.034 2923.07 709 2716 604.966Z" stroke="#F87171" stroke-width="27.5" stroke-linecap="round" stroke-linejoin="round" stroke-miterlimit="10" fill="#FFFFFF" fill-rule="evenodd"/><path d="M3345 233C3494.12 233 3615 353.95 3615 503.148 3615 596.398 3567.78 678.612 3495.96 727.159L3479.64 889.284C3479.64 963.686 3419.36 1024 3345 1024L3345 1024C3270.64 1024 3210.36 963.685 3210.36 889.283L3194.04 727.159C3122.22 678.612 3075 596.398 3075 503.148 3075 353.95 3195.88 233 3345 233Z" stroke="#F87171" stroke-width="27.5" stroke-miterlimit="8" fill="#FFFFFF" fill-rule="evenodd"/><path d="M209.468 0C179.439 0 153.675 18.2368 142.669 44.2273L141 49.5996 139.33 44.2273C128.325 18.2368 102.56 0 72.5315 0 32.493 0 0.0355186 32.4209 0.0355186 72.4142-1.39093 103.731 40.4788 147.636 63.9729 187.901 87.4671 228.165 115.324 314 141 314 166.676 314 194.533 228.165 218.027 187.901 241.521 147.636 283.391 103.731 281.964 72.4142 281.964 32.4209 249.507 0 209.468 0Z" stroke="#F87171" stroke-width="27.5" stroke-linecap="round" stroke-linejoin="round" stroke-miterlimit="10" fill="#FFFFFF" fill-rule="evenodd" transform="matrix(-1 0 0 1 3486 504)"/><path d="M3200 789 3489 789 3478.94 889.206C3478.94 963.651 3418.75 1024 3344.5 1024L3344.5 1024C3270.25 1024 3210.06 963.651 3210.06 889.206Z" stroke="#F87171" stroke-width="27.5" stroke-miterlimit="8" fill="#FFFFFF" fill-rule="evenodd"/><path d="M0 418 207.165 0 556 0 348.835 418Z" stroke="#F87171" stroke-width="27.5" stroke-linecap="round" stroke-linejoin="round" stroke-miterlimit="10" fill="#FFFFFF" fill-rule="evenodd" transform="matrix(6.12323e-17 1 1 -6.12323e-17 3339 711)"/><path d="M3339 1267 2921 1059.84 2921 711 3339 918.165Z" stroke="#F87171" stroke-width="27.5" stroke-linecap="round" stroke-linejoin="round" stroke-miterlimit="10" fill="#FFFFFF" fill-rule="evenodd"/><path d="M3755.93 709 3963 813.365 3545.07 1024 3338 919.635Z" stroke="#F87171" stroke-width="27.5" stroke-linecap="round" stroke-linejoin="round" stroke-miterlimit="10" fill="#FFFFFF" fill-rule="evenodd"/><path d="M417.926 0 625 104.365 207.074 315 0 210.635Z" stroke="#F87171" stroke-width="27.5" stroke-linecap="round" stroke-linejoin="round" stroke-miterlimit="10" fill="#FFFFFF" fill-rule="evenodd" transform="matrix(1 0 0 -1 2715 1024)"/></g></svg>