<svg width="590" height="590" xmlns="http://www.w3.org/2000/svg" xmlns:xlink="http://www.w3.org/1999/xlink" xml:space="preserve" overflow="hidden"><g transform="translate(-1760 -1748)"><rect x="1778.5" y="1766.5" width="553" height="553" stroke="#1C1814" stroke-width="36.6667" stroke-miterlimit="8" stroke-opacity="0" fill="none"/><path d="M1863.44 1801.5 2246.56 1801.5C2274.14 1801.5 2296.5 1827.3 2296.5 1859.12L2296.5 2089.61C2296.5 2121.43 2274.14 2147.23 2246.56 2147.23L2106.37 2147.23 2055 2284.5 2003.63 2147.23 1863.44 2147.23C1835.86 2147.23 1813.5 2121.43 1813.5 2089.61L1813.5 1859.12C1813.5 1827.3 1835.86 1801.5 1863.44 1801.5Z" stroke="#F87171" stroke-width="36.6667" stroke-linecap="round" stroke-linejoin="round" stroke-miterlimit="10" fill="#FFFFFF" fill-rule="evenodd"/><path d="M0 0 279.076 0.000360892" stroke="#F87171" stroke-width="36.6667" stroke-linecap="round" stroke-linejoin="round" stroke-miterlimit="10" fill="none" fill-rule="evenodd" transform="matrix(-1 0 0 1 2194.58 1980.5)"/><path d="M1915.5 1894.5 2194.58 1894.5" stroke="#F87171" stroke-width="36.6667" stroke-linecap="round" stroke-linejoin="round" stroke-miterlimit="10" fill="none" fill-rule="evenodd"/><path d="M1915.5 2065.5 2194.58 2065.5" stroke="#F87171" stroke-width="36.6667" stroke-linecap="round" stroke-linejoin="round" stroke-miterlimit="10" fill="none" fill-rule="evenodd"/></g></svg>