<svg width="873" height="870" xmlns="http://www.w3.org/2000/svg" xmlns:xlink="http://www.w3.org/1999/xlink" xml:space="preserve" overflow="hidden"><g transform="translate(-1551 -1535)"><path d="M1569.5 1828.5 1987.5 1618.5 2405.5 1828.5 1987.5 2038.5Z" stroke="#F87171" stroke-width="36.6667" stroke-linecap="round" stroke-linejoin="round" stroke-miterlimit="10" fill="#FFFFFF" fill-rule="evenodd"/><path d="M1711.5 1830.5C1711.5 1677.52 1835.29 1553.5 1988 1553.5 2140.71 1553.5 2264.5 1677.52 2264.5 1830.5 2264.5 1983.48 2140.71 2107.5 1988 2107.5 1835.29 2107.5 1711.5 1983.48 1711.5 1830.5Z" stroke="#FFC000" stroke-width="36.6667" stroke-miterlimit="8" fill="#FFC000" fill-rule="evenodd"/><path d="M1988 1839.96C1939.44 1753.46 1858.5 1805.39 1858.5 1853.79 1858.5 1926.47 1988 2016.5 1988 2016.5 1988 2016.5 2117.5 1925.88 2117.5 1853.79 2117.5 1805.39 2036.56 1753.46 1988 1839.96Z" stroke="#FFFFFF" stroke-width="36.6667" stroke-miterlimit="8" fill="#FFFFFF" fill-rule="evenodd"/><path d="M0 418 207.165 0 556 0 348.835 418Z" stroke="#F87171" stroke-width="36.6667" stroke-linecap="round" stroke-linejoin="round" stroke-miterlimit="10" fill="#F87171" fill-rule="evenodd" transform="matrix(6.12323e-17 1 1 -6.12323e-17 1987.5 1830.5)"/><path d="M1987.5 2386.5 1569.5 2179.34 1569.5 1830.5 1987.5 2037.66Z" stroke="#F87171" stroke-width="36.6667" stroke-linecap="round" stroke-linejoin="round" stroke-miterlimit="10" fill="#F87171" fill-rule="evenodd"/></g></svg>